<svg xmlns="http://www.w3.org/2000/svg" viewBox="0 0 1536 1024" role="img" width="1536" height="1024">
  <title>Government &amp; Politics – North Korea Knowledge Base</title>

  <defs>
    
    <linearGradient id="parchment" x1="0" y1="0" x2="1" y2="1">
      <stop offset="0%" stop-color="#e8dcc8" />
      <stop offset="100%" stop-color="#d4c4a0" />
    </linearGradient>
    
    <radialGradient id="vignette" cx="50%" cy="50%" r="70%">
      <stop offset="60%" stop-color="transparent" />
      <stop offset="100%" stop-color="#5a4020" stop-opacity="0.35" />
    </radialGradient>
    
    <linearGradient id="seaGrad" x1="0" y1="0" x2="0" y2="1">
      <stop offset="0%" stop-color="#b8cdd8" />
      <stop offset="100%" stop-color="#96b4c4" />
    </linearGradient>
    
    <radialGradient id="starGlow" cx="50%" cy="50%" r="50%">
      <stop offset="0%" stop-color="#c0392b" />
      <stop offset="100%" stop-color="#922b21" />
    </radialGradient>
    
    <pattern id="hatch" width="6" height="6" patternUnits="userSpaceOnUse" patternTransform="rotate(45)">
      <line x1="0" y1="0" x2="0" y2="6" stroke="#8a7050" stroke-opacity="0.12" stroke-width="0.8" />
    </pattern>
    <pattern id="hatch2" width="6" height="6" patternUnits="userSpaceOnUse" patternTransform="rotate(-45)">
      <line x1="0" y1="0" x2="0" y2="6" stroke="#8a7050" stroke-opacity="0.08" stroke-width="0.8" />
    </pattern>
  </defs>

  
  <rect width="1536" height="1024" fill="url(#parchment)" />
  <rect width="1536" height="1024" fill="url(#hatch)" />
  <rect width="1536" height="1024" fill="url(#hatch2)" />

  
  <rect x="24" y="24" width="1488" height="976" fill="none" stroke="#8a6a30" stroke-width="3" rx="2" />
  <rect x="36" y="36" width="1464" height="952" fill="none" stroke="#8a6a30" stroke-width="1" rx="1" />

  
  
  <path d="M24,60 L60,24" stroke="#8a6a30" stroke-width="1.5" fill="none" />
  <circle cx="24" cy="24" r="6" fill="#8a6a30" />
  
  <path d="M1512,60 L1476,24" stroke="#8a6a30" stroke-width="1.5" fill="none" />
  <circle cx="1512" cy="24" r="6" fill="#8a6a30" />
  
  <path d="M24,964 L60,1000" stroke="#8a6a30" stroke-width="1.5" fill="none" />
  <circle cx="24" cy="1000" r="6" fill="#8a6a30" />
  
  <path d="M1512,964 L1476,1000" stroke="#8a6a30" stroke-width="1.5" fill="none" />
  <circle cx="1512" cy="1000" r="6" fill="#8a6a30" />

  
  
  <rect x="60" y="60" width="860" height="904" fill="url(#seaGrad)" rx="2" />
  <rect x="60" y="60" width="860" height="904" fill="url(#hatch)" opacity="0.4" />

  
  <g stroke="#7a9aaa" stroke-width="0.6" opacity="0.5">
    <line x1="60" y1="160" x2="920" y2="160" />
    <line x1="60" y1="260" x2="920" y2="260" />
    <line x1="60" y1="360" x2="920" y2="360" />
    <line x1="60" y1="460" x2="920" y2="460" />
    <line x1="60" y1="560" x2="920" y2="560" />
    <line x1="60" y1="660" x2="920" y2="660" />
    <line x1="60" y1="760" x2="920" y2="760" />
    <line x1="60" y1="860" x2="920" y2="860" />
  </g>
  
  <g stroke="#7a9aaa" stroke-width="0.6" opacity="0.5">
    <line x1="160" y1="60" x2="160" y2="964" />
    <line x1="260" y1="60" x2="260" y2="964" />
    <line x1="360" y1="60" x2="360" y2="964" />
    <line x1="460" y1="60" x2="460" y2="964" />
    <line x1="560" y1="60" x2="560" y2="964" />
    <line x1="660" y1="60" x2="660" y2="964" />
    <line x1="760" y1="60" x2="760" y2="964" />
    <line x1="860" y1="60" x2="860" y2="964" />
  </g>

  
  <path d="M60,60 L440,60 L500,100 L520,140 L480,200 L430,260 L400,340 L360,400 L320,440 L300,500 L280,560 L260,600 L240,640 L220,680 L200,720 L180,760 L160,800 L140,840 L120,900 L100,964 L60,964 Z" fill="#c8b890" stroke="#9a8060" stroke-width="1.5" />
  <text x="140" y="300" font-family="Georgia,serif" font-size="18" fill="#7a6040" opacity="0.7" transform="rotate(-70,140,300)">CHINA</text>

  
  <path d="M440,60 L920,60 L920,180 L800,200 L700,180 L620,200 L560,180 L500,100 Z" fill="#c8b890" stroke="#9a8060" stroke-width="1.5" />

  
  
  
  <path d="M340,440 L360,400 L400,370 L440,360 L480,340 L520,330 L560,340 L590,360 L610,390 L620,430 L610,470 L590,510 L570,540 L550,560 L530,580 L500,600 L480,590 L460,580 L440,560 L420,540 L400,510 L370,490 Z" fill="#b8402a" stroke="#7a2010" stroke-width="2" />
  
  <path d="M340,440 L360,400 L400,370 L440,360 L480,340 L520,330 L560,340 L590,360 L610,390 L620,430 L610,470 L590,510 L570,540 L550,560 L530,580 L500,600 L480,590 L460,580 L440,560 L420,540 L400,510 L370,490 Z" fill="url(#hatch)" opacity="0.6" />

  
  <path d="M500,600 L530,580 L550,560 L570,540 L590,510 L600,540 L590,580 L570,620 L550,660 L520,690 L490,700 L470,680 L460,650 L460,620 L480,610 Z" fill="#c0aa80" stroke="#9a8060" stroke-width="1.5" />
  <text x="520" y="650" font-family="Georgia,serif" font-size="14" fill="#7a6040" opacity="0.7">S.KOREA</text>

  
  <path d="M680,400 L700,380 L720,400 L730,440 L720,480 L700,510 L680,490 L670,460 L675,430 Z" fill="#c8b890" stroke="#9a8060" stroke-width="1.2" />
  <path d="M710,520 L730,500 L750,520 L760,560 L750,600 L730,630 L710,620 L700,590 L700,560 Z" fill="#c8b890" stroke="#9a8060" stroke-width="1.2" />
  <text x="740" y="570" font-family="Georgia,serif" font-size="16" fill="#7a6040" opacity="0.7">JAPAN</text>

  
  <text x="180" y="620" font-family="Georgia,serif" font-size="16" fill="#506878" opacity="0.8" font-style="italic">Yellow Sea</text>

  
  <text x="640" y="480" font-family="Georgia,serif" font-size="16" fill="#506878" opacity="0.8" font-style="italic">Sea of Japan</text>

  
  <circle cx="460" cy="490" r="7" fill="#e8d040" stroke="#8a6a10" stroke-width="1.5" />
  <circle cx="460" cy="490" r="3" fill="#8a6a10" />
  <text x="472" y="488" font-family="Georgia,serif" font-size="13" fill="#3a2010" font-weight="bold">Pyongyang ★</text>

  
  <text x="430" y="430" font-family="Georgia,serif" font-size="20" fill="#f0e8d0" font-weight="bold" letter-spacing="1">NORTH</text>
  <text x="420" y="455" font-family="Georgia,serif" font-size="20" fill="#f0e8d0" font-weight="bold" letter-spacing="1">KOREA</text>

  
  <line x1="460" y1="580" x2="600" y2="540" stroke="#5a3020" stroke-width="2.5" stroke-dasharray="8,4" />
  <text x="490" y="598" font-family="Georgia,serif" font-size="11" fill="#5a3020" font-style="italic">DMZ</text>

  
  <g transform="translate(820,880)">
    
    <circle cx="0" cy="0" r="55" fill="none" stroke="#8a6a30" stroke-width="1.5" />
    <circle cx="0" cy="0" r="45" fill="#d4c4a0" stroke="#8a6a30" stroke-width="0.8" />
    
    <polygon points="0,-44 -8,-20 0,-28 8,-20" fill="#8a6a30" />
    <polygon points="0,44 -8,20 0,28 8,20" fill="#8a6a30" />
    <polygon points="-44,0 -20,-8 -28,0 -20,8" fill="#8a6a30" />
    <polygon points="44,0 20,-8 28,0 20,8" fill="#8a6a30" />
    
    <polygon points="0,-44 -6,-18 0,-26 6,-18" fill="#b09070" transform="rotate(45)" />
    <polygon points="0,-44 -6,-18 0,-26 6,-18" fill="#b09070" transform="rotate(135)" />
    <polygon points="0,-44 -6,-18 0,-26 6,-18" fill="#b09070" transform="rotate(225)" />
    <polygon points="0,-44 -6,-18 0,-26 6,-18" fill="#b09070" transform="rotate(315)" />
    
    <circle cx="0" cy="0" r="6" fill="#8a6a30" />
    
    <text x="0" y="-50" font-family="Georgia,serif" font-size="14" fill="#5a3a10" text-anchor="middle" font-weight="bold">N</text>
    <text x="0" y="62" font-family="Georgia,serif" font-size="14" fill="#5a3a10" text-anchor="middle" font-weight="bold">S</text>
    <text x="62" y="5" font-family="Georgia,serif" font-size="14" fill="#5a3a10" text-anchor="middle" font-weight="bold">E</text>
    <text x="-62" y="5" font-family="Georgia,serif" font-size="14" fill="#5a3a10" text-anchor="middle" font-weight="bold">W</text>
  </g>

  
  <g transform="translate(80,930)">
    <rect x="0" y="0" width="120" height="8" fill="#8a6a30" />
    <rect x="0" y="0" width="60" height="8" fill="#d4c4a0" />
    <text x="0" y="24" font-family="Georgia,serif" font-size="11" fill="#5a3a10">0</text>
    <text x="55" y="24" font-family="Georgia,serif" font-size="11" fill="#5a3a10">200 km</text>
  </g>

  
  
  <rect x="920" y="60" width="556" height="904" fill="#d8c8a4" rx="2" />
  <rect x="920" y="60" width="556" height="904" fill="url(#hatch)" opacity="0.5" />

  
  <line x1="950" y1="110" x2="1446" y2="110" stroke="#8a6a30" stroke-width="2" />
  <line x1="950" y1="116" x2="1446" y2="116" stroke="#8a6a30" stroke-width="0.5" />

  
  <text x="1188" y="100" font-family="Georgia,serif" font-size="16" fill="#8a6a30" text-anchor="middle" letter-spacing="4" font-style="italic">KNOWLEDGE BASE — DPRK</text>

  
  <g transform="translate(1188,360)">
    
    <circle cx="0" cy="0" r="130" fill="none" stroke="#8a6a30" stroke-width="2" />
    
    <circle cx="0" cy="0" r="110" fill="#c0392b" />
    <circle cx="0" cy="0" r="110" fill="url(#hatch)" opacity="0.3" />

    
    <rect x="-60" y="20" width="120" height="50" fill="#e8d040" opacity="0.9" />
    <polygon points="-80,70 -60,20 60,20 80,70" fill="#c8a820" opacity="0.9" />
    
    <polygon points="-50,20 -20,-40 10,20" fill="#d4b830" opacity="0.85" />
    <polygon points="0,20 30,-50 60,20" fill="#c8a820" opacity="0.85" />

    
    <polygon points="0,-90 10,-65 38,-65 16,-48 24,-22 0,-38 -24,-22 -16,-48 -38,-65 -10,-65" fill="#e8d040" stroke="#c8a820" stroke-width="1" />

    
    
    <rect x="-18" y="30" width="8" height="25" fill="#2c1a10" rx="1" />
    <rect x="-24" y="28" width="20" height="10" fill="#2c1a10" rx="2" />
    
    <path d="M -2,32 Q 20,20 18,50" fill="none" stroke="#2c1a10" stroke-width="5" stroke-linecap="round" />
    <path d="M 16,48 L 12,55" stroke="#2c1a10" stroke-width="4" stroke-linecap="round" />
    
    <rect x="8" y="28" width="4" height="28" fill="#2c1a10" rx="1" />
    <polygon points="8,56 10,66 12,56" fill="#2c1a10" />

    
    
    <g stroke="#e8d040" stroke-width="3" fill="none" opacity="0.9">
      <path d="M -115,0 Q -90,-30 -70,-20" />
      <path d="M -112,15 Q -88,-15 -68,-10" />
      <path d="M -105,30 Q -83,0 -65,5" />
      <path d="M -95,44 Q -75,18 -60,22" />
      <path d="M -80,56 Q -65,34 -52,40" />
      <path d="M -115,-15 Q -90,-45 -68,-32" />
      <path d="M -108,-30 Q -85,-58 -65,-45" />
      <path d="M -96,-44 Q -75,-68 -58,-58" />
    </g>
    
    <g stroke="#e8d040" stroke-width="3" fill="none" opacity="0.9">
      <path d="M 115,0 Q 90,-30 70,-20" />
      <path d="M 112,15 Q 88,-15 68,-10" />
      <path d="M 105,30 Q 83,0 65,5" />
      <path d="M 95,44 Q 75,18 60,22" />
      <path d="M 80,56 Q 65,34 52,40" />
      <path d="M 115,-15 Q 90,-45 68,-32" />
      <path d="M 108,-30 Q 85,-58 65,-45" />
      <path d="M 96,-44 Q 75,-68 58,-58" />
    </g>

    
    <path d="M -90,95 Q 0,115 90,95 Q 60,110 0,118 Q -60,110 -90,95 Z" fill="#2255aa" />
    <text x="0" y="110" font-family="Georgia,serif" font-size="11" fill="#e8e0c0" text-anchor="middle" font-weight="bold">조선민주주의인민공화국</text>
  </g>

  
  <line x1="950" y1="520" x2="1446" y2="520" stroke="#8a6a30" stroke-width="0.5" />

  
  <text x="1188" y="610" font-family="Georgia,serif" font-size="58" fill="#2c1a08" text-anchor="middle" font-weight="bold" letter-spacing="-1">Government</text>
  <text x="1188" y="678" font-family="Georgia,serif" font-size="58" fill="#2c1a08" text-anchor="middle" font-weight="bold" letter-spacing="-1">&amp; Politics</text>

  
  <line x1="980" y1="700" x2="1396" y2="700" stroke="#8a6a30" stroke-width="1.5" />

  
  <text x="1188" y="730" font-family="Georgia,serif" font-size="18" fill="#8a6a30" text-anchor="middle" letter-spacing="3">DEMOCRATIC PEOPLE'S REPUBLIC OF KOREA</text>

  
  <text x="1188" y="790" font-family="Georgia,serif" font-size="16" fill="#5a3a10" text-anchor="middle" font-style="italic">Government Structure · Supreme Leader</text>
  <text x="1188" y="816" font-family="Georgia,serif" font-size="16" fill="#5a3a10" text-anchor="middle" font-style="italic">Workers' Party of Korea · State Organs</text>
  <text x="1188" y="842" font-family="Georgia,serif" font-size="16" fill="#5a3a10" text-anchor="middle" font-style="italic">Military · Security Apparatus</text>

  
  <line x1="950" y1="886" x2="1446" y2="886" stroke="#8a6a30" stroke-width="0.5" />
  <line x1="950" y1="892" x2="1446" y2="892" stroke="#8a6a30" stroke-width="2" />

  
  <text x="1188" y="930" font-family="Georgia,serif" font-size="13" fill="#8a6a30" text-anchor="middle" letter-spacing="2" font-style="italic">Atlas of Governance — One-Party Totalitarian System</text>

  
  <rect width="1536" height="1024" fill="url(#vignette)" />
</svg>