<svg xmlns="http://www.w3.org/2000/svg" viewBox="0 0 1536 1024" role="img" width="1536" height="1024">
  <title>Master Index — North Korea Knowledge Base</title>
  <defs>
    <linearGradient id="bg" x1="0" y1="0" x2="1" y2="1">
      <stop offset="0%" stop-color="#e8dfc8" />
      <stop offset="100%" stop-color="#d4c9a8" />
    </linearGradient>
    <linearGradient id="sea" x1="0" y1="0" x2="0" y2="1">
      <stop offset="0%" stop-color="#b8cdd8" />
      <stop offset="100%" stop-color="#9ab5c4" />
    </linearGradient>
    <linearGradient id="landgrad" x1="0" y1="0" x2="0" y2="1">
      <stop offset="0%" stop-color="#c8b98a" />
      <stop offset="100%" stop-color="#b5a472" />
    </linearGradient>
    <linearGradient id="dprk" x1="0" y1="0" x2="1" y2="1">
      <stop offset="0%" stop-color="#8b7355" />
      <stop offset="100%" stop-color="#7a6245" />
    </linearGradient>
    <filter id="engrave" x="-5%" y="-5%" width="110%" height="110%">
      <feTurbulence type="fractalNoise" baseFrequency="0.9" numOctaves="4" result="noise" />
      <feDisplacementMap in="SourceGraphic" in2="noise" scale="1.5" xChannelSelector="R" yChannelSelector="G" />
    </filter>
    <pattern id="hatch" patternUnits="userSpaceOnUse" width="6" height="6" patternTransform="rotate(45)">
      <line x1="0" y1="0" x2="0" y2="6" stroke="#9a8b6a" stroke-width="0.4" opacity="0.4" />
    </pattern>
    <pattern id="crosshatch" patternUnits="userSpaceOnUse" width="8" height="8">
      <line x1="0" y1="0" x2="8" y2="0" stroke="#7a6e55" stroke-width="0.3" opacity="0.3" />
      <line x1="0" y1="4" x2="8" y2="4" stroke="#7a6e55" stroke-width="0.3" opacity="0.3" />
      <line x1="0" y1="0" x2="0" y2="8" stroke="#7a6e55" stroke-width="0.3" opacity="0.3" />
      <line x1="4" y1="0" x2="4" y2="8" stroke="#7a6e55" stroke-width="0.3" opacity="0.3" />
    </pattern>
  </defs>

  
  <rect width="1536" height="1024" fill="url(#bg)" />
  
  <rect width="1536" height="1024" fill="url(#crosshatch)" opacity="0.5" />

  
  <rect x="18" y="18" width="1500" height="988" fill="none" stroke="#7a6245" stroke-width="3" opacity="0.7" />
  <rect x="26" y="26" width="1484" height="972" fill="none" stroke="#7a6245" stroke-width="1" opacity="0.5" />

  
  <rect x="26" y="26" width="1484" height="972" fill="url(#sea)" opacity="0.45" />

  
  <g stroke="#8899aa" stroke-width="0.6" opacity="0.4" fill="none">
    <line x1="26" y1="200" x2="1510" y2="200" />
    <line x1="26" y1="380" x2="1510" y2="380" />
    <line x1="26" y1="560" x2="1510" y2="560" />
    <line x1="26" y1="740" x2="1510" y2="740" />
    <line x1="26" y1="920" x2="1510" y2="920" />
  </g>
  
  <g stroke="#8899aa" stroke-width="0.6" opacity="0.4" fill="none">
    <line x1="200" y1="26" x2="200" y2="998" />
    <line x1="450" y1="26" x2="450" y2="998" />
    <line x1="700" y1="26" x2="700" y2="998" />
    <line x1="950" y1="26" x2="950" y2="998" />
    <line x1="1200" y1="26" x2="1200" y2="998" />
    <line x1="1400" y1="26" x2="1400" y2="998" />
  </g>

  
  <path d="M 400,26 L 1536,26 L 1536,580 Q 1400,520 1280,500 Q 1150,480 1050,440 Q 980,410 900,380 Q 820,340 760,300 Q 700,260 650,220 Q 580,170 500,140 Q 450,120 400,110 Z" fill="url(#landgrad)" opacity="0.7" filter="url(#engrave)" />
  <path d="M 400,26 L 1536,26 L 1536,580 Q 1400,520 1280,500 Q 1150,480 1050,440 Q 980,410 900,380 Q 820,340 760,300 Q 700,260 650,220 Q 580,170 500,140 Q 450,120 400,110 Z" fill="url(#hatch)" opacity="0.3" />

  
  <path d="M 1100,26 L 1536,26 L 1536,350 Q 1450,300 1380,280 Q 1300,255 1200,240 Q 1150,230 1100,220 Z" fill="#c5b688" opacity="0.5" />

  
  
  <path d="M 780,320 Q 820,300 870,290 Q 920,280 960,285 Q 1000,292 1030,310            Q 1050,325 1060,350 Q 1070,375 1065,405            Q 1058,430 1040,455 Q 1020,480 995,500            Q 970,520 940,535 Q 910,550 880,558            Q 855,562 835,555 Q 815,548 800,530            Q 785,510 778,488 Q 770,462 772,435            Q 774,405 778,375 Q 780,348 780,320 Z" fill="url(#dprk)" stroke="#5a4a30" stroke-width="2.5" filter="url(#engrave)" />
  <path d="M 780,320 Q 820,300 870,290 Q 920,280 960,285 Q 1000,292 1030,310            Q 1050,325 1060,350 Q 1070,375 1065,405            Q 1058,430 1040,455 Q 1020,480 995,500            Q 970,520 940,535 Q 910,550 880,558            Q 855,562 835,555 Q 815,548 800,530            Q 785,510 778,488 Q 770,462 772,435            Q 774,405 778,375 Q 780,348 780,320 Z" fill="url(#hatch)" opacity="0.5" />

  
  <path d="M 835,555 Q 855,562 880,558 Q 910,550 940,535 Q 970,520 995,500            Q 1000,510 1005,530 Q 1008,555 1000,580            Q 990,610 970,635 Q 945,660 915,678            Q 890,693 865,698 Q 840,700 818,690            Q 798,678 785,658 Q 774,636 772,610            Q 770,583 778,560 Q 785,548 800,530            Q 815,548 835,555 Z" fill="#b5a878" stroke="#5a4a30" stroke-width="1.5" opacity="0.7" />
  <path d="M 835,555 Q 855,562 880,558 Q 910,550 940,535 Q 970,520 995,500            Q 1000,510 1005,530 Q 1008,555 1000,580            Q 990,610 970,635 Q 945,660 915,678            Q 890,693 865,698 Q 840,700 818,690            Q 798,678 785,658 Q 774,636 772,610            Q 770,583 778,560 Q 785,548 800,530            Q 815,548 835,555 Z" fill="url(#hatch)" opacity="0.3" />

  
  <line x1="778" y1="557" x2="840" y2="556" stroke="#4a3a20" stroke-width="3" stroke-dasharray="8,4" />
  <line x1="840" y1="556" x2="998" y2="502" stroke="#4a3a20" stroke-width="3" stroke-dasharray="8,4" />

  
  <ellipse cx="1180" cy="400" rx="20" ry="70" fill="#b8a870" stroke="#5a4a30" stroke-width="1" opacity="0.6" transform="rotate(-20,1180,400)" />
  <ellipse cx="1210" cy="520" rx="15" ry="55" fill="#b8a870" stroke="#5a4a30" stroke-width="1" opacity="0.6" transform="rotate(-15,1210,520)" />
  <ellipse cx="1230" cy="620" rx="12" ry="45" fill="#b8a870" stroke="#5a4a30" stroke-width="1" opacity="0.6" transform="rotate(-10,1230,620)" />

  
  <circle cx="860" cy="430" r="8" fill="#8b1a1a" stroke="#5a0a0a" stroke-width="1.5" />
  <circle cx="860" cy="430" r="3" fill="#f0e8d0" />
  <text x="872" y="426" font-family="Georgia, serif" font-size="16" fill="#3a2a10" font-style="italic">Pyongyang</text>

  
  <circle cx="888" cy="602" r="6" fill="#4a4a8a" stroke="#2a2a5a" stroke-width="1.5" />
  <circle cx="888" cy="602" r="2.5" fill="#f0e8d0" />
  <text x="898" y="598" font-family="Georgia, serif" font-size="14" fill="#3a2a10" font-style="italic">Seoul</text>

  
  <g transform="translate(1380, 180)">
    
    <circle cx="0" cy="0" r="80" fill="none" stroke="#5a4a30" stroke-width="1.5" opacity="0.6" />
    <circle cx="0" cy="0" r="65" fill="none" stroke="#5a4a30" stroke-width="0.8" opacity="0.4" />
    
    <polygon points="0,-70 -10,-20 0,-35 10,-20" fill="#4a3a20" opacity="0.85" />
    <polygon points="0,70 -10,20 0,35 10,20" fill="#7a6a50" opacity="0.85" />
    <polygon points="-70,0 -20,-10 -35,0 -20,10" fill="#7a6a50" opacity="0.85" />
    <polygon points="70,0 20,-10 35,0 20,10" fill="#7a6a50" opacity="0.85" />
    
    <polygon points="0,-30 -5,-10 0,-18 5,-10" fill="#8b7355" />
    <polygon points="0,30 -5,10 0,18 5,10" fill="#8b7355" />
    <polygon points="-30,0 -10,-5 -18,0 -10,5" fill="#8b7355" />
    <polygon points="30,0 10,-5 18,0 10,5" fill="#8b7355" />
    
    <line x1="0" y1="-65" x2="0" y2="-58" stroke="#5a4a30" stroke-width="1.5" />
    <line x1="0" y1="65" x2="0" y2="58" stroke="#5a4a30" stroke-width="1.5" />
    <line x1="-65" y1="0" x2="-58" y2="0" stroke="#5a4a30" stroke-width="1.5" />
    <line x1="65" y1="0" x2="58" y2="0" stroke="#5a4a30" stroke-width="1.5" />
    <line x1="46" y1="-46" x2="41" y2="-41" stroke="#5a4a30" stroke-width="1" />
    <line x1="-46" y1="-46" x2="-41" y2="-41" stroke="#5a4a30" stroke-width="1" />
    <line x1="46" y1="46" x2="41" y2="41" stroke="#5a4a30" stroke-width="1" />
    <line x1="-46" y1="46" x2="-41" y2="41" stroke="#5a4a30" stroke-width="1" />
    
    <text x="0" y="-74" font-family="Georgia, serif" font-size="18" fill="#3a2a10" text-anchor="middle" font-weight="bold">N</text>
    <text x="0" y="90" font-family="Georgia, serif" font-size="14" fill="#3a2a10" text-anchor="middle">S</text>
    <text x="88" y="5" font-family="Georgia, serif" font-size="14" fill="#3a2a10" text-anchor="start">E</text>
    <text x="-88" y="5" font-family="Georgia, serif" font-size="14" fill="#3a2a10" text-anchor="end">W</text>
    
    <circle cx="0" cy="0" r="4" fill="#4a3a20" />
  </g>

  
  
  <rect x="60" y="80" width="640" height="860" rx="4" fill="#e2d5b0" opacity="0.75" stroke="#8a7450" stroke-width="1.5" />
  <rect x="68" y="88" width="624" height="844" rx="2" fill="none" stroke="#8a7450" stroke-width="0.7" opacity="0.5" />

  
  <rect x="80" y="100" width="600" height="6" fill="#5a4a30" opacity="0.6" />
  
  
  <text x="380" y="185" font-family="Georgia, 'Times New Roman', serif" font-size="88" fill="#2a1a08" text-anchor="middle" font-weight="bold" letter-spacing="6">MASTER</text>
  <text x="380" y="270" font-family="Georgia, 'Times New Roman', serif" font-size="88" fill="#2a1a08" text-anchor="middle" font-weight="bold" letter-spacing="6">INDEX</text>

  
  <rect x="100" y="290" width="560" height="1.5" fill="#7a6245" opacity="0.7" />
  <text x="380" y="325" font-family="Georgia, serif" font-size="22" fill="#4a3820" text-anchor="middle" letter-spacing="8" font-style="italic">DEMOCRATIC PEOPLE'S REPUBLIC OF KOREA</text>
  <rect x="100" y="340" width="560" height="1.5" fill="#7a6245" opacity="0.7" />

  
  <text x="120" y="395" font-family="Georgia, serif" font-size="19" fill="#3a2a10" font-weight="bold" letter-spacing="3">CATEGORIES</text>
  
  
  <text x="130" y="435" font-family="Georgia, serif" font-size="17" fill="#5a4830">◆</text>
  <text x="155" y="435" font-family="Georgia, serif" font-size="17" fill="#3a2a10">Geography</text>
  
  
  <text x="130" y="472" font-family="Georgia, serif" font-size="17" fill="#8b1a1a">◆</text>
  <text x="155" y="472" font-family="Georgia, serif" font-size="17" fill="#3a2a10" font-weight="bold">History</text>
  <text x="175" y="498" font-family="Georgia, serif" font-size="14" fill="#5a4830" font-style="italic">· Korean War (1950–1953)</text>

  
  <text x="130" y="535" font-family="Georgia, serif" font-size="17" fill="#8b1a1a">◆</text>
  <text x="155" y="535" font-family="Georgia, serif" font-size="17" fill="#3a2a10" font-weight="bold">Government &amp; Politics</text>
  <text x="175" y="560" font-family="Georgia, serif" font-size="14" fill="#5a4830" font-style="italic">· Workers' Party · Supreme Leader</text>

  
  <text x="130" y="597" font-family="Georgia, serif" font-size="17" fill="#5a4830">◆</text>
  <text x="155" y="597" font-family="Georgia, serif" font-size="17" fill="#3a2a10">Economy</text>

  
  <text x="130" y="634" font-family="Georgia, serif" font-size="17" fill="#5a4830">◆</text>
  <text x="155" y="634" font-family="Georgia, serif" font-size="17" fill="#3a2a10">Culture &amp; Society</text>

  
  <text x="130" y="671" font-family="Georgia, serif" font-size="17" fill="#8b1a1a">◆</text>
  <text x="155" y="671" font-family="Georgia, serif" font-size="17" fill="#3a2a10" font-weight="bold">People</text>
  <text x="175" y="697" font-family="Georgia, serif" font-size="14" fill="#5a4830" font-style="italic">· Kim Il-sung (1912–1994)</text>

  
  <rect x="100" y="725" width="560" height="1" fill="#7a6245" opacity="0.6" />

  
  <g transform="translate(380, 795)">
    <polygon points="0,-45 10,-15 40,-15 17,5 26,35 0,18 -26,35 -17,5 -40,-15 -10,-15" fill="#8b1a1a" opacity="0.7" stroke="#5a0a0a" stroke-width="1" />
    <polygon points="0,-28 6,-10 24,-10 10,3 16,22 0,11 -16,22 -10,3 -24,-10 -6,-10" fill="#c84040" opacity="0.5" />
    <circle cx="0" cy="0" r="8" fill="#e8d5b0" opacity="0.8" />
  </g>

  
  <text x="380" y="870" font-family="Georgia, serif" font-size="14" fill="#4a3820" text-anchor="middle" letter-spacing="4" font-style="italic">조선민주주의인민공화국</text>
  <text x="380" y="900" font-family="Georgia, serif" font-size="12" fill="#6a5840" text-anchor="middle" letter-spacing="2">Knowledge Base · Complete Index</text>
  
  <rect x="80" y="918" width="600" height="4" fill="#5a4a30" opacity="0.5" />

  
  <text x="650" y="830" font-family="Georgia, serif" font-size="20" fill="#5a7a8a" text-anchor="middle" font-style="italic" opacity="0.7" transform="rotate(-5,650,830)">Yellow Sea</text>
  <text x="1130" y="600" font-family="Georgia, serif" font-size="18" fill="#5a7a8a" text-anchor="middle" font-style="italic" opacity="0.7" transform="rotate(-15,1130,600)">Sea of Japan</text>
  <text x="1350" y="850" font-family="Georgia, serif" font-size="16" fill="#5a7a8a" text-anchor="middle" font-style="italic" opacity="0.6">Pacific Ocean</text>

  
  <g transform="translate(760, 940)">
    <rect x="0" y="0" width="120" height="8" fill="#4a3a20" opacity="0.7" />
    <rect x="120" y="0" width="120" height="8" fill="#e8d5b0" opacity="0.7" stroke="#4a3a20" stroke-width="1" />
    <line x1="0" y1="-4" x2="0" y2="14" stroke="#4a3a20" stroke-width="1.5" />
    <line x1="240" y1="-4" x2="240" y2="14" stroke="#4a3a20" stroke-width="1.5" />
    <text x="120" y="30" font-family="Georgia, serif" font-size="13" fill="#3a2a10" text-anchor="middle">500 km</text>
  </g>

  
  <path d="M 780,320 Q 770,310 755,305 Q 730,298 700,300 Q 670,302 640,310" fill="none" stroke="#7a9ab0" stroke-width="2.5" opacity="0.6" />
  <text x="660" y="296" font-family="Georgia, serif" font-size="13" fill="#4a6a80" font-style="italic" opacity="0.8">Yalu R.</text>

  <path d="M 960,285 Q 985,278 1010,275 Q 1040,272 1060,278" fill="none" stroke="#7a9ab0" stroke-width="2" opacity="0.6" />
  <text x="1000" y="268" font-family="Georgia, serif" font-size="12" fill="#4a6a80" font-style="italic" opacity="0.8">Tumen R.</text>

  
  <g stroke="#5a4a30" stroke-width="2" fill="none" opacity="0.6">
    <path d="M 18,18 L 60,18 M 18,18 L 18,60" />
    <path d="M 1518,18 L 1476,18 M 1518,18 L 1518,60" />
    <path d="M 18,1006 L 60,1006 M 18,1006 L 18,964" />
    <path d="M 1518,1006 L 1476,1006 M 1518,1006 L 1518,964" />
  </g>
</svg>