<svg xmlns="http://www.w3.org/2000/svg" viewBox="0 0 1536 1024" role="img" width="1536" height="1024">
  <title>Religion and Atheism in North Korea — Article Preview Banner</title>

  <defs>
    
    <linearGradient id="parchment" x1="0" y1="0" x2="1" y2="1">
      <stop offset="0%" stop-color="#e8dfc0" />
      <stop offset="50%" stop-color="#ddd0a8" />
      <stop offset="100%" stop-color="#c9bb90" />
    </linearGradient>

    
    <linearGradient id="darkZone" x1="0" y1="0" x2="0" y2="1">
      <stop offset="0%" stop-color="#2a1f0e" />
      <stop offset="100%" stop-color="#3d2e14" />
    </linearGradient>

    
    <radialGradient id="vignette" cx="50%" cy="50%" r="70%">
      <stop offset="0%" stop-color="transparent" />
      <stop offset="100%" stop-color="#1a1208" stop-opacity="0.55" />
    </radialGradient>

    
    <pattern id="hatch" patternUnits="userSpaceOnUse" width="6" height="6" patternTransform="rotate(30)">
      <line x1="0" y1="0" x2="0" y2="6" stroke="#b0a070" stroke-width="0.4" stroke-opacity="0.4" />
    </pattern>

    
    <pattern id="seaLines" patternUnits="userSpaceOnUse" width="10" height="10" patternTransform="rotate(8)">
      <line x1="0" y1="0" x2="10" y2="0" stroke="#9aabbf" stroke-width="0.5" stroke-opacity="0.35" />
      <line x1="0" y1="5" x2="10" y2="5" stroke="#9aabbf" stroke-width="0.3" stroke-opacity="0.2" />
    </pattern>

    
    <clipPath id="bannerClip">
      <rect width="1536" height="1024" />
    </clipPath>

    
    <filter id="crossGlow" x="-20%" y="-20%" width="140%" height="140%">
      <feGaussianBlur stdDeviation="8" result="blur" />
      <feMerge><feMergeNode in="blur" /><feMergeNode in="SourceGraphic" /></feMerge>
    </filter>

    
    <filter id="engrave" x="-5%" y="-5%" width="110%" height="110%">
      <feGaussianBlur stdDeviation="1.2" result="blur" />
      <feComposite in="SourceGraphic" in2="blur" operator="over" />
    </filter>
  </defs>

  
  <rect width="1536" height="1024" fill="url(#parchment)" />
  
  <rect width="1536" height="1024" fill="url(#hatch)" opacity="0.6" />

  
  
  <ellipse cx="560" cy="560" rx="280" ry="340" fill="#b8ccda" opacity="0.55" />
  <ellipse cx="560" cy="560" rx="280" ry="340" fill="url(#seaLines)" opacity="0.9" />
  
  <ellipse cx="1100" cy="520" rx="260" ry="300" fill="#b8ccda" opacity="0.50" />
  <ellipse cx="1100" cy="520" rx="260" ry="300" fill="url(#seaLines)" opacity="0.9" />

  
  
  <path d="M 200,80 L 950,80 L 980,160 L 1020,200 L 1000,280 L 920,320 L 880,380 L 820,390 L 780,360 L 700,370 L 650,340 L 600,350 L 560,320 L 500,330 L 440,300 L 380,310 L 300,280 L 240,240 L 200,180 Z" fill="#c5b48a" stroke="#9a8a60" stroke-width="1.5" opacity="0.75" />
  
  <text x="500" y="240" font-family="Georgia, serif" font-size="22" fill="#6b5a38" opacity="0.7" text-anchor="middle" font-style="italic" letter-spacing="3">CHINA</text>

  
  <path d="M 980,80 L 1400,80 L 1400,200 L 1200,220 L 1050,200 L 1020,160 Z" fill="#c5b48a" stroke="#9a8a60" stroke-width="1.5" opacity="0.65" />
  <text x="1200" y="160" font-family="Georgia, serif" font-size="20" fill="#6b5a38" opacity="0.6" text-anchor="middle" font-style="italic" letter-spacing="2">RUSSIA</text>

  
  <path d="M 1130,290 Q 1160,310 1155,360 Q 1145,410 1120,440 Q 1100,460 1085,440 Q 1070,410 1080,360 Q 1090,320 1110,295 Z" fill="#c5b48a" stroke="#9a8a60" stroke-width="1.2" opacity="0.7" />
  <path d="M 1105,470 Q 1125,485 1120,530 Q 1110,570 1090,590 Q 1075,570 1078,530 Q 1082,490 1098,472 Z" fill="#c5b48a" stroke="#9a8a60" stroke-width="1.2" opacity="0.65" />
  <text x="1148" y="395" font-family="Georgia, serif" font-size="18" fill="#6b5a38" opacity="0.65" text-anchor="middle" font-style="italic" letter-spacing="1">JAPAN</text>

  
  
  <path d="     M 820,388     L 870,395     L 900,410     L 930,430     L 940,460     L 950,500     L 955,540     L 945,575     L 935,610     L 920,640     L 900,665     L 880,690     L 860,720     L 845,750     L 835,775     L 828,795     L 820,810     L 810,820     L 800,825     L 792,820     L 785,805     L 778,790     L 770,775     L 758,755     L 740,730     L 720,705     L 700,680     L 685,655     L 672,625     L 665,595     L 660,565     L 658,535     L 660,505     L 665,475     L 672,450     L 680,425     L 695,405     L 715,392     L 740,383     L 770,378     L 800,380     Z" fill="#c8b87a" stroke="#8a7845" stroke-width="2" clip-path="url(#bannerClip)" />

  
  <path d="     M 820,388     L 870,395     L 900,410     L 930,430     L 940,460     L 950,500     L 955,540     L 945,560     L 900,562     L 860,558     L 820,552     L 780,548     L 740,543     L 700,540     L 665,535     L 660,505     L 665,475     L 672,450     L 680,425     L 695,405     L 715,392     L 740,383     L 770,378     L 800,380     Z" fill="#4a3820" stroke="#8a7845" stroke-width="2" />

  
  <line x1="658" y1="538" x2="957" y2="538" stroke="#c84040" stroke-width="2.5" stroke-dasharray="12,6" opacity="0.85" />
  <text x="975" y="543" font-family="Georgia, serif" font-size="16" fill="#c84040" opacity="0.9" font-style="italic">38°N</text>

  
  <text x="800" y="660" font-family="Georgia, serif" font-size="19" fill="#6b5a38" opacity="0.8" text-anchor="middle" font-style="italic" letter-spacing="1">SOUTH KOREA</text>

  
  <text x="800" y="480" font-family="Georgia, serif" font-size="18" fill="#d4c08a" opacity="0.9" text-anchor="middle" font-style="italic" letter-spacing="1">NORTH KOREA</text>

  
  <circle cx="762" cy="495" r="6" fill="#e8c840" stroke="#c8a820" stroke-width="1.5" />
  <text x="748" y="518" font-family="Georgia, serif" font-size="13" fill="#e8d090" opacity="0.95" text-anchor="middle" font-style="italic">Pyongyang</text>

  
  <radialGradient id="suppressDark" cx="800" cy="470" r="320" gradientUnits="userSpaceOnUse">
    <stop offset="0%" stop-color="#1a0f02" stop-opacity="0.72" />
    <stop offset="60%" stop-color="#2a1a08" stop-opacity="0.45" />
    <stop offset="100%" stop-color="transparent" />
  </radialGradient>
  <rect width="1536" height="1024" fill="url(#suppressDark)" />

  
  
  <g opacity="0.22" transform="translate(800, 460)">
    <rect x="-18" y="-70" width="36" height="140" rx="4" fill="#f0e8c8" />
    <rect x="-55" y="-25" width="110" height="36" rx="4" fill="#f0e8c8" />
  </g>

  
  <g opacity="0.75" transform="translate(800, 460)">
    <rect x="-65" y="-85" width="12" height="170" rx="3" fill="#3a3020" stroke="#1a1008" stroke-width="1" />
    <rect x="-35" y="-85" width="12" height="170" rx="3" fill="#3a3020" stroke="#1a1008" stroke-width="1" />
    <rect x="-5" y="-85" width="12" height="170" rx="3" fill="#3a3020" stroke="#1a1008" stroke-width="1" />
    <rect x="25" y="-85" width="12" height="170" rx="3" fill="#3a3020" stroke="#1a1008" stroke-width="1" />
    <rect x="55" y="-85" width="12" height="170" rx="3" fill="#3a3020" stroke="#1a1008" stroke-width="1" />
    
    <rect x="-68" y="-20" width="146" height="10" rx="3" fill="#2a2218" stroke="#1a1008" stroke-width="1" />
  </g>

  
  <g stroke="#7a6a40" stroke-width="2" fill="none" opacity="0.4">
    <circle cx="730" cy="460" r="10" />
    <circle cx="755" cy="460" r="10" />
    <circle cx="780" cy="460" r="10" />
    <circle cx="820" cy="460" r="10" />
    <circle cx="845" cy="460" r="10" />
    <circle cx="870" cy="460" r="10" />
  </g>

  
  <g transform="translate(220, 180)">
    
    <circle cx="0" cy="0" r="62" fill="none" stroke="#8a7845" stroke-width="1.5" opacity="0.7" />
    <circle cx="0" cy="0" r="48" fill="#ddd0a8" stroke="#8a7845" stroke-width="1" opacity="0.85" />

    
    
    <polygon points="0,-48 -10,-20 0,-28 10,-20" fill="#3a2e14" opacity="0.9" />
    
    <polygon points="0,48 -10,20 0,28 10,20" fill="#8a7845" opacity="0.8" />
    
    <polygon points="48,0 20,-10 28,0 20,10" fill="#8a7845" opacity="0.8" />
    
    <polygon points="-48,0 -20,-10 -28,0 -20,10" fill="#8a7845" opacity="0.8" />

    
    <polygon points="0,-48 -6,-34 0,-38 6,-34" fill="#8a7845" opacity="0.5" transform="rotate(45)" />
    <polygon points="0,-48 -6,-34 0,-38 6,-34" fill="#8a7845" opacity="0.5" transform="rotate(135)" />
    <polygon points="0,-48 -6,-34 0,-38 6,-34" fill="#8a7845" opacity="0.5" transform="rotate(225)" />
    <polygon points="0,-48 -6,-34 0,-38 6,-34" fill="#8a7845" opacity="0.5" transform="rotate(315)" />

    
    <circle cx="0" cy="0" r="5" fill="#8a7845" />

    
    <text x="0" y="-54" text-anchor="middle" font-family="Georgia, serif" font-size="16" font-weight="bold" fill="#3a2e14">N</text>
    <text x="0" y="70" text-anchor="middle" font-family="Georgia, serif" font-size="14" fill="#6b5a38">S</text>
    <text x="68" y="5" text-anchor="middle" font-family="Georgia, serif" font-size="14" fill="#6b5a38">E</text>
    <text x="-68" y="5" text-anchor="middle" font-family="Georgia, serif" font-size="14" fill="#6b5a38">W</text>
  </g>

  
  
  <rect x="28" y="28" width="1480" height="968" rx="4" fill="none" stroke="#8a7845" stroke-width="3" opacity="0.7" />
  <rect x="40" y="40" width="1456" height="944" rx="3" fill="none" stroke="#8a7845" stroke-width="1" opacity="0.5" />
  
  <line x1="28" y1="80" x2="80" y2="28" stroke="#8a7845" stroke-width="1.5" opacity="0.5" />
  <line x1="1508" y1="80" x2="1456" y2="28" stroke="#8a7845" stroke-width="1.5" opacity="0.5" />
  <line x1="28" y1="944" x2="80" y2="996" stroke="#8a7845" stroke-width="1.5" opacity="0.5" />
  <line x1="1508" y1="944" x2="1456" y2="996" stroke="#8a7845" stroke-width="1.5" opacity="0.5" />

  
  <g stroke="#8a7845" stroke-width="0.6" opacity="0.2">
    <line x1="28" y1="256" x2="1508" y2="256" />
    <line x1="28" y1="512" x2="1508" y2="512" />
    <line x1="28" y1="768" x2="1508" y2="768" />
    <line x1="384" y1="40" x2="384" y2="984" />
    <line x1="768" y1="40" x2="768" y2="984" />
    <line x1="1152" y1="40" x2="1152" y2="984" />
  </g>

  
  
  <rect x="1020" y="300" width="460" height="360" rx="6" fill="#2a1f0e" opacity="0.82" />
  <rect x="1024" y="304" width="452" height="352" rx="4" fill="none" stroke="#8a7845" stroke-width="1.5" opacity="0.8" />

  
  <line x1="1055" y1="340" x2="1448" y2="340" stroke="#8a7845" stroke-width="1" opacity="0.7" />
  <line x1="1055" y1="345" x2="1448" y2="345" stroke="#8a7845" stroke-width="0.4" opacity="0.5" />

  
  <text x="1240" y="330" font-family="Georgia, serif" font-size="15" fill="#b0a070" text-anchor="middle" letter-spacing="4" font-style="italic" opacity="0.9">CULTURE &amp; SOCIETY</text>

  
  <text x="1240" y="395" font-family="Georgia, serif" font-size="46" font-weight="bold" fill="#e8d8a0" text-anchor="middle" letter-spacing="0">Religion</text>
  <text x="1240" y="445" font-family="Georgia, serif" font-size="40" font-weight="bold" fill="#e8d8a0" text-anchor="middle">&amp; Atheism</text>

  
  <line x1="1100" y1="465" x2="1380" y2="465" stroke="#8a7845" stroke-width="1" opacity="0.6" />

  
  <text x="1240" y="505" font-family="Georgia, serif" font-size="34" font-weight="bold" fill="#c8a830" text-anchor="middle" letter-spacing="1">in North Korea</text>

  
  <line x1="1055" y1="530" x2="1448" y2="530" stroke="#8a7845" stroke-width="0.4" opacity="0.5" />
  <line x1="1055" y1="535" x2="1448" y2="535" stroke="#8a7845" stroke-width="1" opacity="0.7" />

  
  <text x="1240" y="575" font-family="Georgia, serif" font-size="15" fill="#a09060" text-anchor="middle" font-style="italic" letter-spacing="1">State Atheism · Religious Suppression</text>
  <text x="1240" y="598" font-family="Georgia, serif" font-size="15" fill="#a09060" text-anchor="middle" font-style="italic" letter-spacing="1">Political Imprisonment · Propaganda</text>

  
  <g transform="translate(1240, 630)" opacity="0.5">
    <rect x="-5" y="-18" width="10" height="36" rx="2" fill="#c8a830" />
    <rect x="-14" y="-6" width="28" height="10" rx="2" fill="#c8a830" />
    
    <line x1="-20" y1="-22" x2="20" y2="22" stroke="#2a1f0e" stroke-width="4" stroke-linecap="round" />
    <line x1="20" y1="-22" x2="-20" y2="22" stroke="#2a1f0e" stroke-width="4" stroke-linecap="round" />
  </g>

  
  
  <g transform="translate(760, 930)">
    <line x1="-80" y1="0" x2="80" y2="0" stroke="#6b5a38" stroke-width="2" />
    <line x1="-80" y1="-6" x2="-80" y2="6" stroke="#6b5a38" stroke-width="2" />
    <line x1="0" y1="-4" x2="0" y2="4" stroke="#6b5a38" stroke-width="1.5" />
    <line x1="80" y1="-6" x2="80" y2="6" stroke="#6b5a38" stroke-width="2" />
    <rect x="-80" y="-4" width="80" height="8" fill="#3a2e14" opacity="0.7" />
    <rect x="0" y="-4" width="80" height="8" fill="#e8d8a0" opacity="0.7" />
    <text x="-80" y="20" text-anchor="middle" font-family="Georgia, serif" font-size="12" fill="#6b5a38">0</text>
    <text x="0" y="20" text-anchor="middle" font-family="Georgia, serif" font-size="12" fill="#6b5a38">200 km</text>
    <text x="80" y="20" text-anchor="middle" font-family="Georgia, serif" font-size="12" fill="#6b5a38">400 km</text>
  </g>

  
  <text x="1480" y="975" font-family="Georgia, serif" font-size="14" fill="#8a7845" text-anchor="end" font-style="italic" opacity="0.6">Plate XIV</text>
  <text x="80" y="975" font-family="Georgia, serif" font-size="14" fill="#8a7845" font-style="italic" opacity="0.6">Korean Peninsula · Political &amp; Religious Geography</text>

  
  <rect width="1536" height="1024" fill="url(#vignette)" clip-path="url(#bannerClip)" />

</svg>